<svg width="22" height="27" viewBox="0 0 22 27" fill="none" xmlns="http://www.w3.org/2000/svg">
<path d="M11 0C9.55546 0 8.12506 0.349188 6.79048 1.02763C5.4559 1.70606 4.24327 2.70047 3.22183 3.95406C1.15893 6.4858 0 9.91958 0 13.5C0 17.0804 1.15893 20.5142 3.22183 23.0459C4.24327 24.2995 5.4559 25.2939 6.79048 25.9724C8.12506 26.6508 9.55546 27 11 27C13.9174 27 16.7153 25.5777 18.7782 23.0459C20.8411 20.5142 22 17.0804 22 13.5C22 11.7272 21.7155 9.97167 21.1627 8.33377C20.6099 6.69588 19.7996 5.20765 18.7782 3.95406C17.7567 2.70047 16.5441 1.70606 15.2095 1.02763C13.8749 0.349188 12.4445 0 11 0ZM11 2.7C13.3339 2.7 15.5722 3.83785 17.2225 5.86325C18.8729 7.88864 19.8 10.6357 19.8 13.5C19.8 16.3643 18.8729 19.1114 17.2225 21.1368C15.5722 23.1621 13.3339 24.3 11 24.3C8.66609 24.3 6.42778 23.1621 4.77746 21.1368C3.12714 19.1114 2.2 16.3643 2.2 13.5C2.2 10.6357 3.12714 7.88864 4.77746 5.86325C6.42778 3.83785 8.66609 2.7 11 2.7ZM5.5 10.8L11 17.55L16.5 10.8H5.5Z" fill="#3FAEFD"/>
</svg>
