<svg width="22" height="26" viewBox="0 0 22 26" fill="none" xmlns="http://www.w3.org/2000/svg">
<path d="M7.33333 11.7H4.88889V14.3H7.33333V11.7ZM12.2222 11.7H9.77778V14.3H12.2222V11.7ZM17.1111 11.7H14.6667V14.3H17.1111V11.7ZM19.5556 2.6H18.3333V0H15.8889V2.6H6.11111V0H3.66667V2.6H2.44444C1.08778 2.6 0 3.77 0 5.2V23.4C0 24.0896 0.257539 24.7509 0.715961 25.2385C1.17438 25.7261 1.79614 26 2.44444 26H19.5556C20.2039 26 20.8256 25.7261 21.284 25.2385C21.7425 24.7509 22 24.0896 22 23.4V5.2C22 4.51044 21.7425 3.84912 21.284 3.36152C20.8256 2.87393 20.2039 2.6 19.5556 2.6ZM19.5556 23.4H2.44444V9.1H19.5556V23.4Z" fill="#3FAEFD"/>
</svg>
