<svg width="22" height="27" viewBox="0 0 22 27" fill="none" xmlns="http://www.w3.org/2000/svg">
<path d="M11 24.3C13.3339 24.3 15.5722 23.1621 17.2225 21.1368C18.8729 19.1114 19.8 16.3643 19.8 13.5C19.8 10.6357 18.8729 7.88864 17.2225 5.86325C15.5722 3.83785 13.3339 2.7 11 2.7C8.66609 2.7 6.42778 3.83785 4.77746 5.86325C3.12714 7.88864 2.2 10.6357 2.2 13.5C2.2 16.3643 3.12714 19.1114 4.77746 21.1368C6.42778 23.1621 8.66609 24.3 11 24.3ZM11 0C12.4445 0 13.8749 0.349188 15.2095 1.02763C16.5441 1.70606 17.7567 2.70047 18.7782 3.95406C19.7996 5.20765 20.6099 6.69588 21.1627 8.33377C21.7155 9.97167 22 11.7272 22 13.5C22 17.0804 20.8411 20.5142 18.7782 23.0459C16.7153 25.5777 13.9174 27 11 27C4.917 27 0 20.925 0 13.5C0 9.91958 1.15893 6.4858 3.22183 3.95406C5.28473 1.42232 8.08262 0 11 0ZM11.55 6.75V13.8375L16.5 17.442L15.675 19.1025L9.9 14.85V6.75H11.55Z" fill="#3FAEFD"/>
</svg>
