<svg width="22" height="20" viewBox="0 0 22 20" fill="none" xmlns="http://www.w3.org/2000/svg">
<path d="M11 0C12.4587 0 13.8576 0.526784 14.8891 1.46447C15.9205 2.40215 16.5 3.67392 16.5 5C16.5 6.32608 15.9205 7.59785 14.8891 8.53553C13.8576 9.47322 12.4587 10 11 10C9.54131 10 8.14236 9.47322 7.11091 8.53553C6.07946 7.59785 5.5 6.32608 5.5 5C5.5 3.67392 6.07946 2.40215 7.11091 1.46447C8.14236 0.526784 9.54131 0 11 0ZM11 12.5C17.0775 12.5 22 14.7375 22 17.5V20H0V17.5C0 14.7375 4.9225 12.5 11 12.5Z" fill="#3FAEFD"/>
</svg>
