<svg width="22" height="24" viewBox="0 0 22 24" fill="none" xmlns="http://www.w3.org/2000/svg">
<path d="M4.42444 10.3867C6.18444 14.16 9.02 17.2533 12.4789 19.1733L15.1678 16.24C15.51 15.8667 15.9867 15.76 16.4144 15.9067C17.7833 16.4 19.25 16.6667 20.7778 16.6667C21.1019 16.6667 21.4128 16.8071 21.642 17.0572C21.8712 17.3072 22 17.6464 22 18V22.6667C22 23.0203 21.8712 23.3594 21.642 23.6095C21.4128 23.8595 21.1019 24 20.7778 24C15.2672 24 9.98226 21.6119 6.08567 17.3611C2.18908 13.1103 0 7.34491 0 1.33333C0 0.979711 0.128769 0.640573 0.357981 0.390524C0.587192 0.140476 0.898069 0 1.22222 0H5.5C5.82415 0 6.13503 0.140476 6.36424 0.390524C6.59345 0.640573 6.72222 0.979711 6.72222 1.33333C6.72222 3 6.96667 4.6 7.41889 6.09333C7.55333 6.56 7.45555 7.08 7.11333 7.45333L4.42444 10.3867Z" fill="#3FAEFD"/>
</svg>
