<svg width="22" height="26" viewBox="0 0 22 26" fill="none" xmlns="http://www.w3.org/2000/svg">
<path d="M15.796 15.6C15.884 14.742 15.95 13.884 15.95 13C15.95 12.116 15.884 11.258 15.796 10.4H19.514C19.69 11.232 19.8 12.103 19.8 13C19.8 13.897 19.69 14.768 19.514 15.6M13.849 22.828C14.509 21.385 15.015 19.825 15.367 18.2H18.612C17.556 20.345 15.873 22.009 13.849 22.828ZM13.574 15.6H8.426C8.316 14.742 8.25 13.884 8.25 13C8.25 12.116 8.316 11.245 8.426 10.4H13.574C13.673 11.245 13.75 12.116 13.75 13C13.75 13.884 13.673 14.742 13.574 15.6ZM11 23.348C10.087 21.788 9.35 20.059 8.899 18.2H13.101C12.65 20.059 11.913 21.788 11 23.348ZM6.6 7.8H3.388C4.433 5.642 6.127 3.978 8.14 3.172C7.48 4.615 6.985 6.175 6.6 7.8ZM3.388 18.2H6.6C6.985 19.825 7.48 21.385 8.14 22.828C6.127 22.009 4.433 20.345 3.388 18.2ZM2.486 15.6C2.31 14.768 2.2 13.897 2.2 13C2.2 12.103 2.31 11.232 2.486 10.4H6.204C6.116 11.258 6.05 12.116 6.05 13C6.05 13.884 6.116 14.742 6.204 15.6M11 2.639C11.913 4.199 12.65 5.941 13.101 7.8H8.899C9.35 5.941 10.087 4.199 11 2.639ZM18.612 7.8H15.367C15.015 6.175 14.509 4.615 13.849 3.172C15.873 3.991 17.556 5.642 18.612 7.8ZM11 0C4.917 0 0 5.85 0 13C0 16.4478 1.15893 19.7544 3.22183 22.1924C4.24327 23.3995 5.4559 24.3571 6.79048 25.0104C8.12506 25.6637 9.55546 26 11 26C13.9174 26 16.7153 24.6304 18.7782 22.1924C20.8411 19.7544 22 16.4478 22 13C22 11.2928 21.7155 9.60235 21.1627 8.02512C20.6099 6.44788 19.7996 5.01477 18.7782 3.80761C17.7567 2.60045 16.5441 1.64288 15.2095 0.989566C13.8749 0.336255 12.4445 0 11 0Z" fill="#3FAEFD"/>
</svg>
